<svg width="20" height="21" fill="none" xmlns="http://www.w3.org/2000/svg"><path d="M20 10.009c0 5.53-4.515 10-10.03 10-1.852 0-3.573-.5-5.058-1.383-.147-.03-.383.03-.486.06-.573.131-1.25.323-1.514.396-.941.162-1.397.088-1.647-.073-.206-.133-.162-.294-.147-.324.03-.088.073-.117.147-.206.103-.103.28-.235.573-.632.383-.588.47-1.235.456-1.5A9.848 9.848 0 0 1 0 10.009 9.95 9.95 0 0 1 9.97.039c5.515 0 10.03 4.44 10.03 9.97ZM9.97 17.626c4.192 0 7.648-3.426 7.648-7.617 0-4.192-3.456-7.589-7.647-7.589-4.192 0-7.574 3.397-7.574 7.589 0 4.19 3.382 7.617 7.574 7.617Z" fill="#274769"/><path fill-rule="evenodd" clip-rule="evenodd" d="M16.485 2.435a9.936 9.936 0 0 0-6.5-2.397C4.471.038 0 4.508 0 10.038c0 2.412.853 4.618 2.265 6.338.014.28-.089.883-.47 1.47-.295.398-.457.545-.56.648a.387.387 0 0 0-.147.206c-.014.03-.014.22.191.353.25.162.706.22 1.647.073.265-.073.956-.264 1.515-.397.103-.03.353-.088.485-.059a9.884 9.884 0 0 0 5.06 1.383 9.96 9.96 0 0 0 6.882-2.75c.132-.177.161-.427.176-.5.03-.691-.647-1.015-.78-1.074-.411-.19-1.117-.03-1.382.118a7.562 7.562 0 0 1-4.897 1.794c-4.19 0-7.573-3.397-7.573-7.588 0-4.191 3.397-7.588 7.573-7.588 1.692 0 3.265.558 4.53 1.5L14.5 3.95c.118.088.515.338 1.235.059.324-.118.853-.544.912-.824.044-.265-.073-.573-.162-.75Z" fill="#39F"/><path d="M13.603 11.435c.78 0 1.427-.632 1.427-1.427 0-.794-.633-1.426-1.427-1.426s-1.426.632-1.426 1.426c0 .795.647 1.427 1.426 1.427Z" fill="#59A2F6"/><path d="M9.971 11.435c.78 0 1.427-.632 1.427-1.427 0-.794-.633-1.426-1.427-1.426s-1.426.632-1.426 1.426c0 .795.632 1.427 1.426 1.427Z" fill="#4480C2"/><path d="M6.339 11.435c.779 0 1.426-.632 1.426-1.427 0-.794-.632-1.426-1.426-1.426-.795 0-1.427.632-1.427 1.426 0 .78.632 1.427 1.427 1.427Z" fill="#375D86"/></svg>